<?xml version="1.0" standalone="no"?>
<!DOCTYPE svg PUBLIC "-//W3C//DTD SVG 20010904//EN"
 "http://www.w3.org/TR/2001/REC-SVG-20010904/DTD/svg10.dtd">
<svg version="1.0" xmlns="http://www.w3.org/2000/svg"
 width="1024.000000pt" height="1024.000000pt" viewBox="0 0 1024.000000 1024.000000"
 preserveAspectRatio="xMidYMid meet">

<g transform="translate(0.000000,1024.000000) scale(0.100000,-0.100000)"
fill="#000000" stroke="none">
<path d="M4970 9914 c-845 -36 -1586 -251 -2285 -663 -1161 -684 -1990 -1839
-2260 -3151 -69 -339 -98 -621 -98 -980 0 -359 29 -641 98 -980 187 -906 643
-1748 1305 -2410 808 -809 1858 -1295 3005 -1391 180 -15 591 -15 770 0 1150
98 2196 581 3005 1391 809 809 1293 1855 1391 3005 15 180 15 590 0 770 -98
1150 -582 2196 -1391 3005 -739 740 -1695 1217 -2721 1359 -241 33 -611 54
-819 45z m473 -2474 c274 -15 450 -46 632 -110 334 -119 618 -352 816 -670 73
-118 170 -324 213 -455 43 -129 98 -391 123 -590 21 -171 24 -588 5 -775 -113
-1091 -638 -1816 -1442 -1994 -230 -50 -249 -51 -1400 -51 l-1075 0 -3 2315
c-1 1273 0 2321 3 2328 6 15 1851 17 2128 2z"/>
<path d="M4260 5120 l0 -1510 489 0 c287 0 522 4 568 11 211 28 413 127 544
266 184 193 319 516 369 878 44 326 25 797 -45 1093 -116 486 -337 697 -793
757 -87 12 -229 15 -623 15 l-509 0 0 -1510z"/>
</g>
</svg>
